<svg width="32" height="32" viewBox="0 0 32 32" fill="none" xmlns="http://www.w3.org/2000/svg">
<path fill-rule="evenodd" clip-rule="evenodd" d="M7 1C3.68629 1 1 3.68629 1 7V25C1 28.3137 3.68629 31 7 31H25C28.3137 31 31 28.3137 31 25V7C31 3.68629 28.3137 1 25 1H7ZM8 2C4.68629 2 2 4.68629 2 8V24C2 27.3137 4.68629 30 8 30H24C27.3137 30 30 27.3137 30 24V8C30 4.68629 27.3137 2 24 2H8Z" fill="white"/>
<path d="M1.5 7C1.5 3.96243 3.96243 1.5 7 1.5V0.5C3.41015 0.5 0.5 3.41015 0.5 7H1.5ZM1.5 25V7H0.5V25H1.5ZM7 30.5C3.96243 30.5 1.5 28.0376 1.5 25H0.5C0.5 28.5899 3.41015 31.5 7 31.5V30.5ZM25 30.5H7V31.5H25V30.5ZM30.5 25C30.5 28.0376 28.0376 30.5 25 30.5V31.5C28.5899 31.5 31.5 28.5899 31.5 25H30.5ZM30.5 7V25H31.5V7H30.5ZM25 1.5C28.0376 1.5 30.5 3.96243 30.5 7H31.5C31.5 3.41015 28.5899 0.5 25 0.5V1.5ZM7 1.5H25V0.5H7V1.5ZM2.5 8C2.5 4.96243 4.96243 2.5 8 2.5V1.5C4.41015 1.5 1.5 4.41015 1.5 8H2.5ZM2.5 24V8H1.5V24H2.5ZM8 29.5C4.96243 29.5 2.5 27.0376 2.5 24H1.5C1.5 27.5899 4.41015 30.5 8 30.5V29.5ZM24 29.5H8V30.5H24V29.5ZM29.5 24C29.5 27.0376 27.0376 29.5 24 29.5V30.5C27.5899 30.5 30.5 27.5898 30.5 24H29.5ZM29.5 8V24H30.5V8H29.5ZM24 2.5C27.0376 2.5 29.5 4.96243 29.5 8H30.5C30.5 4.41015 27.5898 1.5 24 1.5V2.5ZM8 2.5H24V1.5H8V2.5Z" fill="#F4F4F4" fill-opacity="0.14"/>
</svg>
