<svg width="62" height="62" viewBox="0 0 62 62" fill="none" xmlns="http://www.w3.org/2000/svg">
<rect x="31" y="1" width="30" height="30" rx="6" fill="#2A9D8F" stroke="#F4F4F4" stroke-opacity="0.14"/>
<rect x="61" y="31" width="30" height="30" rx="6" transform="rotate(90 61 31)" fill="#E76F51" stroke="#F4F4F4" stroke-opacity="0.14"/>
<path d="M25 1C28.3137 1 31 3.68629 31 7V25C31 28.3137 28.3137 31 25 31H7C3.68629 31 1 28.3137 1 25V7C1 3.68629 3.68629 1 7 1L25 1Z" fill="#F4A261" stroke="#F4F4F4" stroke-opacity="0.14"/>
<path d="M1 37C1 33.6863 3.68629 31 7 31H25C28.3137 31 31 33.6863 31 37V55C31 58.3137 28.3137 61 25 61H7C3.68629 61 1 58.3137 1 55L1 37Z" fill="#E9C46A" stroke="#F4F4F4" stroke-opacity="0.14"/>
</svg>
