<svg width="47" height="42" viewBox="0 0 47 42" fill="none" xmlns="http://www.w3.org/2000/svg">
<path fill-rule="evenodd" clip-rule="evenodd" d="M22.1153 4.01256C22.88 3.32915 24.12 3.32915 24.8848 4.01256L42.5098 19.7626C43.2745 20.446 43.2745 21.554 42.5098 22.2374C41.745 22.9209 40.505 22.9209 39.7403 22.2374L39.1667 21.7249V33.25C39.1667 36.1495 36.5364 38.5 33.2917 38.5H13.7084C10.4637 38.5 7.83335 36.1495 7.83335 33.25V21.7249L7.25977 22.2374C6.49499 22.9209 5.25505 22.9209 4.49027 22.2374C3.72549 21.554 3.72549 20.446 4.49027 19.7626L8.40624 16.2632C8.4067 16.2628 8.40717 16.2624 8.40764 16.2619L22.1153 4.01256ZM11.75 18.2249V33.25C11.75 34.2165 12.6268 35 13.7084 35H33.2917C34.3732 35 35.25 34.2165 35.25 33.25V18.2249L23.5 7.72487L11.75 18.2249Z" fill="#D2D2CC"/>
</svg>
