<svg width="147" height="130" viewBox="0 0 147 130" fill="none" xmlns="http://www.w3.org/2000/svg">
<path d="M7.15256e-07 65C7.15256e-07 100.899 32.9071 130 73.5 130C114.093 130 147 100.899 147 65C147 29.1015 114.093 0 73.5 0C32.9071 0 7.15256e-07 29.1015 7.15256e-07 65Z" fill="#D9D9D9"/>
<path fill-rule="evenodd" clip-rule="evenodd" d="M59.3334 22.3334C58.0447 22.3334 57 23.378 57 24.6667V28.3499C56.7196 28.0999 56.4357 27.8556 56.1504 27.6182C54.0762 25.8924 51.6742 24.3221 49.5692 23.5298C45.5274 22.0086 41.0831 21.9358 36.9937 23.324C32.9042 24.7122 29.4226 27.4754 27.1421 31.1428C24.8616 34.8102 23.9232 39.1548 24.4869 43.4365C25.0506 47.7182 27.0815 51.672 30.2335 54.6242C33.3855 57.5764 37.4636 59.3443 41.773 59.6267C46.0824 59.9092 50.3564 58.6887 53.8668 56.1732C57.3772 53.6577 59.9067 50.0028 61.0245 45.8313C61.358 44.5866 60.6193 43.3071 59.3746 42.9736C58.1298 42.6401 56.8504 43.3788 56.5168 44.6235C55.6785 47.7521 53.7813 50.4933 51.1485 52.3799C48.5158 54.2665 45.3103 55.1819 42.0782 54.9701C38.8462 54.7582 35.7876 53.4323 33.4236 51.2181C31.0596 49.004 29.5364 46.0387 29.1136 42.8274C28.6909 39.6161 29.3946 36.3576 31.105 33.6071C32.8154 30.8565 35.4266 28.7842 38.4937 27.743C41.5608 26.7019 44.894 26.7564 47.9254 27.8974C49.3569 28.4362 51.3033 29.6559 53.1656 31.2055C53.5723 31.5439 53.963 31.8881 54.3332 32.2329H49.4339C48.1452 32.2329 47.1005 33.2775 47.1005 34.5662C47.1005 35.8549 48.1452 36.8995 49.4339 36.8995H59.3334C60.622 36.8995 61.6667 35.8549 61.6667 34.5662V24.6667C61.6667 23.378 60.622 22.3334 59.3334 22.3334Z" fill="white"/>
</svg>
