<svg width="56" height="56" viewBox="0 0 56 56" fill="none" xmlns="http://www.w3.org/2000/svg">
<path fill-rule="evenodd" clip-rule="evenodd" d="M44.3334 9.33334C43.0447 9.33334 42 10.378 42 11.6667V15.3498C41.7196 15.0999 41.4357 14.8555 41.1504 14.6182C39.0762 12.8923 36.6742 11.322 34.5692 10.5298C30.5274 9.00853 26.0831 8.9358 21.9937 10.324C17.9042 11.7122 14.4226 14.4754 12.1421 18.1427C9.86155 21.8101 8.92319 26.1548 9.48689 30.4365C10.0506 34.7182 12.0815 38.672 15.2335 41.6241C18.3855 44.5763 22.4636 46.3443 26.773 46.6267C31.0824 46.9092 35.3564 45.6887 38.8668 43.1731C42.3772 40.6576 44.9067 37.0028 46.0245 32.8313C46.358 31.5865 45.6193 30.3071 44.3746 29.9736C43.1298 29.64 41.8504 30.3787 41.5168 31.6235C40.6785 34.7521 38.7813 37.4932 36.1485 39.3799C33.5158 41.2665 30.3103 42.1819 27.0782 41.97C23.8462 41.7582 20.7876 40.4322 18.4236 38.2181C16.0596 36.004 14.5364 33.0386 14.1136 29.8274C13.6909 26.6161 14.3946 23.3576 16.105 20.6071C17.8154 17.8565 20.4266 15.7841 23.4937 14.743C26.5608 13.7019 29.894 13.7564 32.9254 14.8973C34.3569 15.4361 36.3033 16.6559 38.1656 18.2055C38.5723 18.5439 38.963 18.888 39.3332 19.2328H34.4339C33.1452 19.2328 32.1005 20.2775 32.1005 21.5662C32.1005 22.8548 33.1452 23.8995 34.4339 23.8995H44.3334C45.622 23.8995 46.6667 22.8548 46.6667 21.5662V11.6667C46.6667 10.378 45.622 9.33334 44.3334 9.33334Z" fill="white"/>
</svg>
