<svg width="56" height="56" viewBox="0 0 56 56" fill="none" xmlns="http://www.w3.org/2000/svg">
<path fill-rule="evenodd" clip-rule="evenodd" d="M11.6666 9.33334C12.9553 9.33334 14 10.378 14 11.6667V15.3498C14.2804 15.0999 14.5643 14.8555 14.8496 14.6182C16.9238 12.8923 19.3258 11.322 21.4308 10.5298C25.4726 9.00853 29.9169 8.9358 34.0063 10.324C38.0958 11.7122 41.5774 14.4754 43.8579 18.1427C46.1384 21.8101 47.0768 26.1548 46.5131 30.4365C45.9494 34.7182 43.9185 38.672 40.7665 41.6241C37.6145 44.5763 33.5364 46.3443 29.227 46.6267C24.9176 46.9092 20.6436 45.6887 17.1332 43.1731C13.6228 40.6576 11.0933 37.0028 9.97552 32.8313C9.64199 31.5865 10.3807 30.3071 11.6254 29.9736C12.8702 29.64 14.1496 30.3787 14.4832 31.6235C15.3215 34.7521 17.2187 37.4932 19.8515 39.3799C22.4842 41.2665 25.6897 42.1819 28.9218 41.97C32.1538 41.7582 35.2124 40.4322 37.5764 38.2181C39.9404 36.004 41.4636 33.0386 41.8864 29.8274C42.3091 26.6161 41.6054 23.3576 39.895 20.6071C38.1846 17.8565 35.5734 15.7841 32.5063 14.743C29.4392 13.7019 26.106 13.7564 23.0746 14.8973C21.6431 15.4361 19.6967 16.6559 17.8344 18.2055C17.4277 18.5439 17.037 18.888 16.6668 19.2328H21.5661C22.8548 19.2328 23.8995 20.2775 23.8995 21.5662C23.8995 22.8548 22.8548 23.8995 21.5661 23.8995H11.6666C10.378 23.8995 9.33331 22.8548 9.33331 21.5662V11.6667C9.33331 10.378 10.378 9.33334 11.6666 9.33334Z" fill="white"/>
</svg>
