<svg width="33" height="37" viewBox="0 0 33 37" fill="none" xmlns="http://www.w3.org/2000/svg">
<path fill-rule="evenodd" clip-rule="evenodd" d="M24.6809 8.15989C25.2178 7.55783 26.0884 7.55783 26.6254 8.15989C27.7745 9.4483 28.6861 10.9779 29.308 12.6613C29.9299 14.3447 30.25 16.1489 30.25 17.971C30.25 19.7931 29.9299 21.5973 29.308 23.2807C28.6861 24.9641 27.7745 26.4937 26.6254 27.7821C26.0884 28.3842 25.2178 28.3842 24.6809 27.7821C24.1439 27.18 24.1439 26.2039 24.6809 25.6019C25.5746 24.5998 26.2836 23.4101 26.7673 22.1008C27.251 20.7915 27.5 19.3882 27.5 17.971C27.5 16.5538 27.251 15.1505 26.7673 13.8412C26.2836 12.5319 25.5746 11.3422 24.6809 10.3401C24.1439 9.73807 24.1439 8.76195 24.6809 8.15989ZM13.9074 8.96612C15.735 7.95417 17.875 9.4453 17.875 11.7307V25.2693C17.875 27.5547 15.735 29.0458 13.9074 28.0339L8.754 25.1806H5.5C3.98122 25.1806 2.75 23.8001 2.75 22.0972V14.9028C2.75 13.1999 3.98122 11.8195 5.5 11.8195L8.754 11.8195L13.9074 8.96612ZM15.125 11.7307L9.97164 14.5841C9.59297 14.7937 9.17632 14.9028 8.754 14.9028L5.5 14.9028V22.0972H8.754C9.17632 22.0972 9.59297 22.2063 9.97164 22.416L15.125 25.2693V11.7307ZM20.7918 12.5204C21.3288 11.9183 22.1994 11.9183 22.7363 12.5204C23.3747 13.2362 23.8811 14.0859 24.2266 15.0211C24.5721 15.9564 24.75 16.9587 24.75 17.971C24.75 18.9833 24.5721 19.9856 24.2266 20.9208C23.8811 21.8561 23.3747 22.7058 22.7363 23.4216C22.1994 24.0237 21.3288 24.0237 20.7918 23.4216C20.2548 22.8195 20.2548 21.8434 20.7918 21.2414C21.1748 20.8119 21.4787 20.302 21.686 19.7409C21.8933 19.1798 22 18.5784 22 17.971C22 17.3636 21.8933 16.7622 21.686 16.2011C21.4787 15.64 21.1748 15.1301 20.7918 14.7006C20.2548 14.0986 20.2548 13.1224 20.7918 12.5204Z" fill="#264653"/>
</svg>
