<svg width="218" height="147" viewBox="0 0 218 147" fill="none" xmlns="http://www.w3.org/2000/svg">
<ellipse cx="54.2878" cy="62.8877" rx="54.2878" ry="50.0363" fill="white"/>
<path d="M208.576 46.439C208.576 72.0865 184.27 92.8779 154.288 92.8779C124.305 92.8779 100 72.0865 100 46.439C100 20.7914 124.305 0 154.288 0C184.27 0 208.576 20.7914 208.576 46.439Z" fill="white"/>
<ellipse cx="163.288" cy="100.439" rx="54.2878" ry="46.439" fill="white"/>
<path d="M163 66C163 102.451 133.899 132 98 132C62.1015 132 33 102.451 33 66C33 29.5492 62.1015 0 98 0C133.899 0 163 29.5492 163 66Z" fill="white"/>
</svg>
