<svg width="80" height="72" viewBox="0 0 80 72" fill="none" xmlns="http://www.w3.org/2000/svg">
<path d="M80 65C80 100.899 47.0929 130 6.5 130C-34.0929 130 -67 100.899 -67 65C-67 29.1015 -34.0929 0 6.5 0C47.0929 0 80 29.1015 80 65Z" fill="#D9D9D9"/>
<path fill-rule="evenodd" clip-rule="evenodd" d="M20.6666 22.3334C21.9553 22.3334 23 23.378 23 24.6667V28.3499C23.2804 28.0999 23.5643 27.8556 23.8496 27.6182C25.9238 25.8924 28.3258 24.3221 30.4308 23.5298C34.4726 22.0086 38.9169 21.9358 43.0063 23.324C47.0958 24.7122 50.5774 27.4754 52.8579 31.1428C55.1384 34.8102 56.0768 39.1548 55.5131 43.4365C54.9494 47.7182 52.9185 51.672 49.7665 54.6242C46.6145 57.5764 42.5364 59.3443 38.227 59.6267C33.9176 59.9092 29.6436 58.6887 26.1332 56.1732C22.6228 53.6577 20.0933 50.0028 18.9755 45.8313C18.642 44.5866 19.3807 43.3071 20.6254 42.9736C21.8702 42.6401 23.1496 43.3788 23.4832 44.6235C24.3215 47.7521 26.2187 50.4933 28.8515 52.3799C31.4842 54.2665 34.6897 55.1819 37.9218 54.9701C41.1538 54.7582 44.2124 53.4323 46.5764 51.2181C48.9404 49.004 50.4636 46.0387 50.8864 42.8274C51.3091 39.6161 50.6054 36.3576 48.895 33.6071C47.1846 30.8565 44.5734 28.7842 41.5063 27.743C38.4392 26.7019 35.106 26.7564 32.0746 27.8974C30.6431 28.4362 28.6967 29.6559 26.8344 31.2055C26.4277 31.5439 26.037 31.8881 25.6668 32.2329H30.5661C31.8548 32.2329 32.8995 33.2775 32.8995 34.5662C32.8995 35.8549 31.8548 36.8995 30.5661 36.8995H20.6666C19.378 36.8995 18.3333 35.8549 18.3333 34.5662V24.6667C18.3333 23.378 19.378 22.3334 20.6666 22.3334Z" fill="white"/>
</svg>
