<svg width="40" height="40" viewBox="0 0 40 40" fill="none" xmlns="http://www.w3.org/2000/svg">
<path d="M25.6036 4.35089C24.5349 4.35089 23.6686 5.21722 23.6686 6.28589C23.6686 7.35456 24.5349 8.22089 25.6036 8.22089V4.35089ZM21.7869 31.5731C20.7182 31.5731 19.8519 32.4394 19.8519 33.5081C19.8519 34.5768 20.7182 35.4431 21.7869 35.4431V31.5731ZM33.3918 32.891L34.2287 34.6357L34.2287 34.6357L33.3918 32.891ZM33.3918 7.01215L34.2287 5.26747L34.2287 5.26747L33.3918 7.01215ZM25.1787 31.0281C25.9568 30.2956 25.9938 29.071 25.2613 28.2929C24.5288 27.5148 23.3041 27.4778 22.526 28.2103L25.1787 31.0281ZM21.1819 32.1332L19.8556 30.7243L19.8556 30.7243L21.1819 32.1332ZM21.1819 34.883L19.8556 36.292L19.8556 36.292L21.1819 34.883ZM22.526 38.8059C23.3041 39.5384 24.5288 39.5015 25.2613 38.7234C25.9938 37.9452 25.9568 36.7206 25.1787 35.9881L22.526 38.8059ZM37.3904 19.7163L39.3253 19.7066L37.3904 19.7163ZM13.9956 35.4431C15.0643 35.4431 15.9306 34.5768 15.9306 33.5081C15.9306 32.4394 15.0643 31.5731 13.9956 31.5731V35.4431ZM18.007 8.22089C19.0757 8.22089 19.942 7.35456 19.942 6.28589C19.942 5.21722 19.0757 4.35089 18.007 4.35089V8.22089ZM3.40322 9.25562L1.6943 8.34798L3.40322 9.25562ZM6.40208 6.903L5.56522 5.15833L5.56522 5.15833L6.40208 6.903ZM6.40208 32.7819L5.56522 34.5265L5.56522 34.5265L6.40208 32.7819ZM14.6152 8.76587C13.8371 9.49839 13.8001 10.723 14.5326 11.5011C15.2651 12.2792 16.4898 12.3162 17.2679 11.5837L14.6152 8.76587ZM18.612 7.66082L19.9383 9.06973L19.9383 9.06973L18.612 7.66082ZM18.612 4.91096L17.2856 6.31987L18.612 4.91096ZM17.2679 0.988097C16.4898 0.255573 15.2651 0.292534 14.5326 1.07065C13.8001 1.84877 13.8371 3.07339 14.6152 3.80591L17.2679 0.988097ZM2.40359 20.0777L0.468619 20.0874L2.40359 20.0777ZM36.4718 9.52195L34.7361 10.3772L36.4718 9.52195ZM36.2791 9.2262L34.7788 10.4482L36.2791 9.2262ZM3.32213 30.2721L5.05787 29.4168L3.32213 30.2721ZM3.51482 30.5678L2.01448 31.7898L3.51482 30.5678ZM37.3904 25.838L35.4554 25.838L37.3904 25.838ZM37.3904 25.8307L35.4554 25.8217L37.3904 25.8307ZM2.4036 25.7292L0.468596 25.7299L0.468596 25.7299L2.4036 25.7292ZM2.40361 25.7207L4.33859 25.7305L2.40361 25.7207ZM37.3904 14.0648L39.3254 14.0641L37.3904 14.0648ZM37.3903 14.0733L35.4554 14.0635L37.3903 14.0733ZM25.6036 8.22089H27.5702V4.35089H25.6036V8.22089ZM27.5702 31.5731H21.7869V35.4431H27.5702V31.5731ZM35.4554 25.838C35.4554 26.9817 35.4482 27.4876 35.3631 27.9423C35.2896 28.3354 35.1394 28.7692 34.6818 29.6307L38.0997 31.446C38.6409 30.4269 38.9906 29.5975 39.1671 28.6541C39.3321 27.7722 39.3254 26.8684 39.3254 25.838L35.4554 25.838ZM27.5702 35.4431C28.7735 35.4431 30.0714 35.3931 31.202 35.2847C31.7665 35.2305 32.3134 35.1595 32.7982 35.0668C33.2492 34.9806 33.7773 34.8522 34.2287 34.6357L32.555 31.1463C32.5645 31.1418 32.4332 31.1965 32.0713 31.2657C31.7433 31.3284 31.3238 31.3852 30.8324 31.4324C29.8516 31.5265 28.6805 31.5731 27.5702 31.5731V35.4431ZM34.6818 29.6307C34.3467 30.2616 34.0429 30.4874 33.8364 30.6072C33.7077 30.682 33.5651 30.7442 33.3605 30.822C33.2102 30.8791 32.847 31.0062 32.555 31.1463L34.2287 34.6357C34.3253 34.5893 34.4064 34.5645 34.7351 34.4396C35.0094 34.3354 35.3805 34.1857 35.7794 33.9541C36.6281 33.4614 37.4351 32.6972 38.0997 31.446L34.6818 29.6307ZM39.3254 14.0641C39.3244 11.7351 38.7765 9.82138 38.2076 8.66672L34.7361 10.3772C35.0313 10.9764 35.4546 12.3021 35.4554 14.0656L39.3254 14.0641ZM27.5702 8.22089C28.6511 8.22089 29.8075 8.29203 30.7833 8.41088C31.2712 8.4703 31.693 8.53913 32.0255 8.61108C32.1912 8.64693 32.3223 8.6809 32.4208 8.71079C32.5248 8.74238 32.5626 8.76047 32.555 8.75682L34.2287 5.26747C33.4656 4.90141 32.2919 4.69601 31.2512 4.56926C30.1155 4.43095 28.8028 4.35089 27.5702 4.35089V8.22089ZM37.7795 8.00423C36.981 7.0239 36.3023 6.40419 35.634 5.9734C35.0582 5.6022 34.3435 5.32255 34.2287 5.26747L32.555 8.75682C33.1979 9.06522 33.2148 9.01829 33.5371 9.22609C33.767 9.3743 34.153 9.67988 34.7788 10.4482L37.7795 8.00423ZM22.526 28.2103L19.8556 30.7243L22.5083 33.5421L25.1787 31.0281L22.526 28.2103ZM19.8556 36.292L22.526 38.8059L25.1787 35.9881L22.5083 33.4741L19.8556 36.292ZM19.8556 30.7243C18.2374 32.2476 18.2374 34.7686 19.8556 36.292L22.5083 33.4741C22.4984 33.4648 22.501 33.4642 22.5053 33.4743C22.5092 33.4833 22.512 33.4951 22.512 33.5081C22.512 33.5211 22.5092 33.5329 22.5053 33.5419C22.501 33.5521 22.4984 33.5514 22.5083 33.5421L19.8556 30.7243ZM35.4554 14.0635C35.4548 14.1728 35.4413 16.918 35.4554 19.726L39.3253 19.7066C39.3113 16.9185 39.3248 14.1889 39.3253 14.083L35.4554 14.0635ZM35.4554 19.726C35.47 22.6311 35.4558 25.7233 35.4554 25.8217L39.3253 25.8397C39.3258 25.7393 39.34 22.6315 39.3253 19.7066L35.4554 19.726ZM13.9956 31.5731H12.029V35.4431H13.9956V31.5731ZM12.2237 8.22089H18.007V4.35089H12.2237V8.22089ZM4.33859 13.956C4.3386 12.8124 4.34574 12.3064 4.43081 11.8517C4.50437 11.4586 4.65453 11.0248 5.11214 10.1633L1.6943 8.34798C1.15302 9.3671 0.803371 10.1965 0.626837 11.1399C0.461822 12.0218 0.468595 12.9256 0.468595 13.956L4.33859 13.956ZM12.2237 4.35089C11.0204 4.35089 9.72254 4.40086 8.59187 4.50934C8.02743 4.5635 7.48055 4.63448 6.99573 4.72719C6.54472 4.81344 6.01659 4.94181 5.56522 5.15833L7.23895 8.64767C7.2294 8.65225 7.3607 8.59752 7.72259 8.52832C8.05067 8.46558 8.47017 8.40879 8.96148 8.36165C9.94231 8.26754 11.1134 8.22089 12.2237 8.22089V4.35089ZM5.11214 10.1633C5.44722 9.53237 5.75106 9.30664 5.95751 9.18679C6.08625 9.11205 6.22886 9.04979 6.43346 8.97204C6.58375 8.91494 6.9469 8.78776 7.23895 8.64767L5.56522 5.15833C5.46862 5.20466 5.38755 5.2295 5.05887 5.35439C4.78451 5.45864 4.41341 5.60833 4.01454 5.83989C3.16579 6.33261 2.35884 7.09677 1.6943 8.34798L5.11214 10.1633ZM0.468596 25.7299C0.469527 28.0589 1.01747 29.9726 1.58638 31.1273L5.05787 29.4168C4.76264 28.8176 4.3393 27.4919 4.3386 25.7284L0.468596 25.7299ZM12.029 31.5731C10.9492 31.5731 9.84541 31.5021 8.92439 31.3845C8.46391 31.3257 8.0686 31.2577 7.75632 31.187C7.60086 31.1518 7.47679 31.1183 7.38235 31.0886C7.33574 31.074 7.30023 31.0615 7.27462 31.0517C7.24854 31.0418 7.23764 31.0366 7.23895 31.0372L5.56522 34.5265C6.31497 34.8862 7.42161 35.0941 8.43425 35.2234C9.52736 35.3629 10.7952 35.4431 12.029 35.4431V31.5731ZM2.01448 31.7898C2.81291 32.7701 3.49167 33.3898 4.15992 33.8206C4.73573 34.1918 5.4504 34.4715 5.56522 34.5265L7.23895 31.0372C6.59602 30.7288 6.57914 30.7757 6.2568 30.5679C6.0269 30.4197 5.6409 30.1141 5.01517 29.3458L2.01448 31.7898ZM17.2679 11.5837L19.9383 9.06973L17.2856 6.25191L14.6152 8.76587L17.2679 11.5837ZM19.9383 3.50205L17.2679 0.988097L14.6152 3.80591L17.2856 6.31987L19.9383 3.50205ZM19.9383 9.06973C21.5565 7.54639 21.5565 5.02539 19.9383 3.50205L17.2856 6.31987C17.2955 6.32919 17.2929 6.32984 17.2885 6.31971C17.2847 6.31071 17.2819 6.29892 17.2819 6.28589C17.2819 6.27286 17.2847 6.26107 17.2885 6.25207C17.2929 6.24194 17.2955 6.24259 17.2856 6.25191L19.9383 9.06973ZM4.33859 25.7305C4.33914 25.6212 4.35269 22.876 4.33857 20.068L0.468619 20.0874C0.482641 22.8755 0.46917 25.6051 0.468636 25.711L4.33859 25.7305ZM4.33857 20.068C4.32396 17.1629 4.3381 14.0707 4.33856 13.9723L0.468604 13.9543C0.468138 14.0547 0.45391 17.1625 0.468619 20.0874L4.33857 20.068ZM38.2076 8.66672C38.0799 8.40766 37.9285 8.18716 37.7795 8.00423L34.7788 10.4482C34.7786 10.4479 34.7596 10.4249 34.7361 10.3772L38.2076 8.66672ZM0.468595 13.956C0.468595 13.9569 0.468595 13.9582 0.468595 13.9583C0.468595 13.9587 0.468595 13.9583 0.468596 13.9577C0.468598 13.956 0.468603 13.9546 0.468604 13.9543L4.33856 13.9723C4.33858 13.9689 4.33859 13.9655 4.33859 13.9616C4.3386 13.96 4.3386 13.9586 4.3386 13.9578C4.33859 13.9567 4.33859 13.9568 4.33859 13.956L0.468595 13.956ZM1.58638 31.1273C1.71403 31.3863 1.8655 31.6068 2.01448 31.7898L5.01517 29.3458C5.01534 29.3461 5.03438 29.3691 5.05787 29.4168L1.58638 31.1273ZM39.3254 25.838C39.3254 25.8371 39.3254 25.8358 39.3254 25.8357C39.3254 25.8353 39.3254 25.8357 39.3254 25.8363C39.3254 25.838 39.3253 25.8394 39.3253 25.8397L35.4554 25.8217C35.4554 25.8251 35.4554 25.8285 35.4554 25.8324C35.4554 25.834 35.4554 25.8354 35.4554 25.8362C35.4554 25.8373 35.4554 25.8373 35.4554 25.838L39.3254 25.838ZM4.3386 25.7284C4.33859 25.7263 4.3386 25.727 4.33859 25.7279C4.33859 25.7285 4.33859 25.7291 4.33859 25.7297C4.33859 25.7302 4.33859 25.7305 4.33859 25.7305L0.468636 25.711C0.468592 25.7197 0.468594 25.7254 0.468596 25.7299L4.3386 25.7284ZM35.4554 14.0656C35.4554 14.0677 35.4554 14.067 35.4554 14.0661C35.4554 14.0655 35.4554 14.0649 35.4554 14.0643C35.4554 14.0638 35.4554 14.0635 35.4554 14.0635L39.3253 14.083C39.3254 14.0744 39.3254 14.0686 39.3254 14.0641L35.4554 14.0656Z" fill="#D2D2CC"/>
</svg>
